{"title":"Cell 2016 English Movies HDRip XviD ESubs AAC New +Sample ☻rDX☻","uid":14870491,"size":738767578,"categoryP":"video","categoryS":"movies","magnet":"?xt=urn:btih:6711ccfeed20d074bef2c3388614c919b80792af&amp;dn=Cell+2016+English+Movies+HDRip+XviD+ESubs+AAC+New+%2BSample+%E2%98%BBrDX%E2%98%BB&amp;tr=udp%3A%2F%2Ftracker.leechers-paradise.org%3A6969&amp;tr=udp%3A%2F%2Fzer0day.ch%3A1337&amp;tr=udp%3A%2F%2Fopen.demonii.com%3A1337&amp;tr=udp%3A%2F%2Ftracker.coppersurfer.tk%3A6969&amp;tr=udp%3A%2F%2Fexodus.desync.com%3A6969","seeders":2,"leechers":1,"uploader":"basicssom","files":3,"time":1465569315,"description":"----------------------------------------------------------------\r\nCell 2016 English Movies HDRip XviD ESubs AAC New Source with Sample ☻rDX☻\r\n\r\nSCREEN SHOTS &amp; POSTER:\r\n  \nhttp://mobileshosting.com/2016/6/owner/index.htm  \nhttp://mobileshosting.com/2016/6/owner/1.html  \nhttp://mobileshosting.com/2016/6/owner/2.html  \nhttp://mobileshosting.com/2016/6/owner/3.html  \nhttp://mobileshosting.com/2016/6/owner/4.html  \nhttp://mobileshosting.com/2016/6/owner/5.html  \nhttp://mobileshosting.com/2016/6/owner/6.html  \nhttp://mobileshosting.com/2016/6/owner/7.html  \nhttp://mobileshosting.com/2016/6/owner/8.html  \nhttp://mobileshosting.com/2016/6/owner/9.html  \nhttp://mobileshosting.com/2016/6/owner/10.html\r\n\r\nFormat                                   : Matroska\r\nFormat version                           : Version 4 / Version 2\r\nFile size                                : 694 MiB\r\nDuration                                 : 1h 37mn\r\nOverall bit rate                         : 994 Kbps\r\nMovie name                               : Cell 2016 English Movies HDRip XviD ESubs AAC New Source ☻rDX☻\r\n\r\nVideo\r\nID                                       : 1\r\nFormat                                   : MPEG-4 Visual\r\nFormat profile                           : Advanced   \r\nFormat settings, BVOP                    : Yes\r\nFormat settings, QPel                    : No\r\nFormat settings, GMC                     : No warppoints\r\nFormat settings, Matrix                  : Default (H.263)\r\nCodec ID                                 : V_MS/VFW/FOURCC / XVID\r\nCodec ID/Hint                            : XviD\r\nDuration                                 : 1h 37mn\r\nBit rate                                 : 846 Kbps\r\nWidth                                    : 640 pixels\r\nHeight                                   : 272 pixels\r\nDisplay aspect ratio                     : 2.35:1\r\nFrame rate mode                          : Constant\r\nFrame rate                               : 23.976 fps\r\nColor space                              : YUV\r\nChroma subsampling                       : 4:2:0\r\nBit depth                                : 8 bits\r\nScan type                                : Progressive\r\nCompression mode                         : Lossy\r\nBits/(Pixel*Frame)                       : 0.203\r\nStream size                              : 591 MiB (85%)\r\nTitle                                    : ☻rDX☻\r\nWriting library                          : XviD 65\r\nDefault                                  : Yes\r\nForced                                   : No\r\n\r\nAudio\r\nID                                       : 2\r\nFormat                                   : MPEG Audio\r\nFormat version                           : Version 1\r\nFormat profile                           : Layer 3\r\nMode                                     : Joint stereo\r\nMode extension                           : MS Stereo\r\nCodec ID                                 : A_MPEG/L3\r\nCodec ID/Hint                            : MP3\r\nDuration                                 : 1h 38mn\r\nBit rate mode                            : Constant\r\nBit rate                                 : 128 Kbps\r\nChannel(s)                               : 2 channels\r\nSampling rate                            : 48.0 KHz\r\nCompression mode                         : Lossy\r\nStream size                              : 89.8 MiB (13%)\r\nTitle                                    : ☻rDX☻\r\nWriting library                          : LAME3.99r\r\nEncoding settings                        : -m j -V 4 -q 3 -lowpass 17 -b 128\r\nDefault                                  : Yes\r\nForced                                   : No\r\n\r\nIMDB \nhttp://www.imdb.com/title/tt0775440/","torrent":{"xt":"urn:btih:6711ccfeed20d074bef2c3388614c919b80792af","amp;dn":"Cell+2016+English+Movies+HDRip+XviD+ESubs+AAC+New+%2BSample+%E2%98%BBrDX%E2%98%BB","amp;tr":["udp%3A%2F%2Ftracker.leechers-paradise.org%3A6969","udp%3A%2F%2Fzer0day.ch%3A1337","udp%3A%2F%2Fopen.demonii.com%3A1337","udp%3A%2F%2Ftracker.coppersurfer.tk%3A6969","udp%3A%2F%2Fexodus.desync.com%3A6969"],"infoHash":"6711ccfeed20d074bef2c3388614c919b80792af","infoHashBuffer":{"type":"Buffer","data":[103,17,204,254,237,32,208,116,190,242,195,56,134,20,201,25,184,7,146,175]},"announce":[],"urlList":[]}}